:FULLY-SPECIFIED
:DEGREES
520
root 8.48706 16.6567 -3.0625 1758.68 -86.3553 -1743.5
lowerback -0.728714 -1.82281 -2.44929
upperback 2.09236 -2.40654 0.568137
thorax 2.68284 -1.26368 1.87879
lowerneck -19.2469 2.36021 -2.18576
upperneck 36.048 1.95763 3.26373
head 15.9784 0.623025 2.066
rclavicle -2.82274e-014 1.39149e-014
rhumerus -29.4222 -11.6018 -81.53
rradius 23.4737
rwrist 25.19
rhand -21.6553 -11.7776
rfingers 7.12502
rthumb 4.74159 -41.7046
lclavicle -2.82274e-014 1.39149e-014
lhumerus -18.1885 -15.1165 84.5383
lradius 42.1962
lwrist 11.1414
lhand -28.968 4.04966
lfingers 7.12502
lthumb -2.32083 34.0168
rfemur -46.2782 -1.77197 17.1314
rtibia 27.6615
rfoot -6.12761 -4.70472
rtoes -15.3654
lfemur -9.16036 -1.34659 -26.9006
ltibia 22.0209
lfoot -17.5507 4.84025
ltoes -16.1944
521
root 8.48445 16.6419 -3.07478 1760.06 -86.2415 -1744.87
lowerback -0.683746 -1.92481 -2.48765
upperback 2.12596 -2.54587 0.681977
thorax 2.70663 -1.33628 2.01317
lowerneck -19.2421 2.39046 -2.19491
upperneck 35.8452 2.04731 3.21162
head 15.8731 0.660361 2.05688
rclavicle -3.22031e-014 1.55052e-014
rhumerus -29.6839 -12.3776 -80.936
rradius 22.7807
rwrist 26.011
rhand -21.7929 -11.8115
rfingers 7.12502
rthumb 4.60875 -41.7414
lclavicle -3.22031e-014 1.55052e-014
lhumerus -17.7586 -15.179 84.2456
lradius 43.1322
lwrist 11.3892
lhand -28.8759 4.00256
lfingers 7.12502
lthumb -2.23188 33.9706
rfemur -45.8391 -0.860987 16.4887
rtibia 24.6066
rfoot -6.27305 -5.71473
rtoes -14.7957
lfemur -7.6747 -1.38127 -26.8296
ltibia 20.8827
lfoot -17.2049 4.88508
ltoes -16.897
522
root 8.47886 16.623 -3.08907 1760.38 -85.983 -1745.24
lowerback -0.596587 -2.03776 -2.68921
upperback 2.18573 -2.69742 0.766854
thorax 2.74175 -1.4189 2.20964
lowerneck -19.291 2.40568 -2.24547
upperneck 35.6538 2.12895 3.1696
head 15.7864 0.690627 2.05954
rclavicle 1.15295e-014 5.1684e-015
rhumerus -29.9017 -13.3892 -80.2178
rradius 22.0016
rwrist 27.4183
rhand -21.7667 -12.0192
rfingers 7.12502
rthumb 4.63408 -41.9485
lclavicle 1.15295e-014 5.1684e-015
lhumerus -17.3457 -15.2562 83.9961
lradius 43.9514
lwrist 11.3174
lhand -28.9838 3.86238
lfingers 7.12502
lthumb -2.33602 33.8293
rfemur -45.3901 -0.0804445 15.7251
rtibia 22.0734
rfoot -6.32153 -6.49426
rtoes -14.7037
lfemur -6.18347 -1.31737 -26.8829
ltibia 19.8708
lfoot -16.8642 4.79334
ltoes -18.3922
523
root 8.47005 16.5948 -3.10537 1760.94 -85.8512 -1745.84
lowerback -0.479278 -2.09388 -2.7748
upperback 2.21876 -2.77664 0.862035
thorax 2.72381 -1.46209 2.35639
lowerneck -19.3724 2.39719 -2.26686
upperneck 35.5251 2.16698 3.10927
head 15.7417 0.701948 2.04351
rclavicle 3.33958e-014 -3.18055e-015
rhumerus -30.1843 -14.3973 -79.4738
rradius 21.2174
rwrist 28.5224
rhand -21.7974 -12.0081
rfingers 7.12502
rthumb 4.60441 -41.938
lclavicle 3.33958e-014 -3.18055e-015
lhumerus -16.9734 -15.4493 83.7612
lradius 44.8515
lwrist 11.8277
lhand -29.0594 3.84847
lfingers 7.12502
lthumb -2.40912 33.8146
rfemur -45.0423 0.749316 15.1224
rtibia 20.1609
rfoot -6.2926 -7.16881
rtoes -15.2366
lfemur -4.75441 -1.33207 -26.8036
ltibia 19.0033
lfoot -16.4724 4.69675
ltoes -19.4011
524
root 8.45605 16.5656 -3.12459 1762.84 -85.7273 -1747.78
lowerback -0.469347 -2.17893 -2.76827
upperback 2.27381 -2.89414 0.988113
thorax 2.78898 -1.52426 2.47741
lowerneck -19.4296 2.40484 -2.34379
upperneck 35.3906 2.24575 3.0585
head 15.6855 0.724035 2.04816
rclavicle 1.86858e-014 -7.55382e-015
rhumerus -30.4238 -15.3586 -78.747
rradius 20.4657
rwrist 29.7187
rhand -21.7745 -12.2887
rfingers 7.12502
rthumb 4.62654 -42.2182
lclavicle 1.86858e-014 -7.55382e-015
lhumerus -16.6436 -15.7148 83.5376
lradius 45.6652
lwrist 12.2991
lhand -29.4569 3.592
lfingers 7.12502
lthumb -2.79294 33.5535
rfemur -44.7947 1.39016 14.74
rtibia 18.8949
rfoot -6.15249 -7.51882
rtoes -15.4267
lfemur -3.4711 -1.32886 -26.5876
ltibia 18.3772
lfoot -16.0552 4.40702
ltoes -20.165
